<svg xmlns="http://www.w3.org/2000/svg" version="1.1" xmlns:xlink="http://www.w3.org/1999/xlink" xmlns:svgjs="http://svgjs.dev/svgjs" width="1000" height="1000" viewBox="0 0 1000 1000"><rect width="1000" height="1000" fill="#ffffff"></rect><g transform="matrix(0.7,0,0,0.7,149.57575762709632,431.4884355078866)"><svg viewBox="0 0 396 78" data-background-color="#ffffff" preserveAspectRatio="xMidYMid meet" height="196" width="1000" xmlns="http://www.w3.org/2000/svg" xmlns:xlink="http://www.w3.org/1999/xlink"><g id="tight-bounds" transform="matrix(1,0,0,1,0.24000002904313078,-0.05027674646618152)"><svg viewBox="0 0 395.52 78.10055349293233" height="78.10055349293233" width="395.52"><g><svg viewBox="0 0 395.52 78.10055349293233" height="78.10055349293233" width="395.52"><g transform="matrix(1,0,0,1,0,48.26927529744361)"><svg viewBox="0 0 395.52 29.83127819548872" height="29.83127819548872" width="395.52"><g id="textblocktransform"><svg viewBox="0 0 395.52 29.83127819548872" height="29.83127819548872" width="395.52" id="textblock"><g><svg viewBox="0 0 395.52 29.83127819548872" height="29.83127819548872" width="395.52"><g transform="matrix(1,0,0,1,0,0)"><svg width="395.52" viewBox="5.420000076293945 -38.650001525878906 519.5 39.19000244140625" height="29.83127819548872" data-palette-color="#ca3433"><path d="M5.42 0L5.42-38.16 25.54-38.16Q29.93-38.16 33.15-37.21 36.38-36.25 38.5-34.46 40.63-32.67 41.66-30.08 42.7-27.49 42.7-24.24L42.7-24.24Q42.7-21.19 41.67-18.6 40.65-16.02 38.54-14.12 36.43-12.23 33.2-11.17 29.98-10.11 25.59-10.11L25.59-10.11 13.16-10.13 13.16 0 5.42 0ZM13.16-16.82L25.73-16.82Q27.93-16.82 29.58-17.35 31.23-17.87 32.34-18.84 33.45-19.8 34-21.18 34.55-22.56 34.55-24.24L34.55-24.24Q34.55-27.64 32.34-29.53 30.13-31.42 25.73-31.42L25.73-31.42 13.16-31.42 13.16-16.82ZM46.24 0L64.16-38.16 72.36-38.16 90.82 0 82.69 0 79.64-6.42 57.35-6.42 54.39 0 46.24 0ZM60.3-12.79L76.58-12.79 68.33-30.13 60.3-12.79ZM96.75 0L96.75-38.16 116.16-38.16Q120.55-38.16 123.77-37.24 127-36.33 129.12-34.59 131.25-32.86 132.28-30.37 133.32-27.88 133.32-24.73L133.32-24.73Q133.32-22.61 132.81-20.69 132.29-18.77 131.23-17.16 130.17-15.55 128.56-14.29 126.95-13.04 124.78-12.21L124.78-12.21 133.08 0 123.6 0 116.43-10.84 116.21-10.84 104.49-10.86 104.49 0 96.75 0ZM104.49-17.55L116.35-17.55Q118.55-17.55 120.2-18.07 121.85-18.58 122.96-19.51 124.07-20.43 124.62-21.77 125.17-23.1 125.17-24.73L125.17-24.73Q125.17-27.93 122.97-29.68 120.77-31.42 116.35-31.42L116.35-31.42 104.49-31.42 104.49-17.55ZM142.47 0L142.47-38.16 150.21-38.16 150.21-18.41 170.35-38.16 180.27-38.16 161.47-19.95 180.27 0 169.96 0 155.9-14.55 150.21-9.06 150.21 0 142.47 0ZM195.99 0L179.14-38.16 187.59-38.16 197.94-13.53 200.33-7.57 202.21-13.53 206.02-22.51 199.16-38.16 207.12-38.16 209.93-30.71 212.54-38.16 220.5-38.16 213.64-22.51 217.52-13.33 219.86-7.57 221.67-13.43 232.07-38.16 240.52-38.16 223.67 0 216.01 0 212.61-7.57 209.85-14.92 207.09-7.57 203.65 0 195.99 0ZM245.45 0L245.45-38.16 253.23-38.16 253.23 0 245.45 0ZM274.59 0L274.59-31.37 260.51-31.37 260.51-38.16 296.42-38.16 296.42-31.37 282.33-31.37 282.33 0 274.59 0ZM304.65 0L304.65-38.16 312.38-38.16 312.38-28.2 336.12-28.2 336.12-38.16 343.88-38.16 343.88 0 336.12 0 336.12-21.58 312.38-21.58 312.38 0 304.65 0ZM354.72 0L354.72-38.16 387.21-38.16 387.21-31.37 362.46-31.37 362.46-23.75 384.38-23.75 384.38-17.38 362.46-17.38 362.46-6.76 387.72-6.76 387.72 0 354.72 0ZM391.41 0L409.33-38.16 417.53-38.16 435.99 0 427.86 0 424.81-6.42 402.52-6.42 399.56 0 391.41 0ZM405.47-12.79L421.75-12.79 413.5-30.13 405.47-12.79ZM439.57-5.08L443.7-11.35Q445.78-10.18 447.91-9.24 450.05-8.3 452.34-7.65 454.64-7.01 457.16-6.67 459.69-6.32 462.55-6.32L462.55-6.32Q465.99-6.32 468.41-6.77 470.82-7.23 472.35-8.02 473.88-8.81 474.57-9.91 475.27-11.01 475.27-12.3L475.27-12.3Q475.27-14.38 473.53-15.59 471.8-16.8 468.19-16.8L468.19-16.8Q466.6-16.8 464.84-16.59 463.09-16.38 461.29-16.14 459.5-15.89 457.75-15.69 456.01-15.48 454.47-15.48L454.47-15.48Q451.9-15.48 449.55-16.14 447.19-16.8 445.37-18.12 443.55-19.43 442.48-21.41 441.41-23.39 441.41-26.03L441.41-26.03Q441.41-27.59 441.83-29.13 442.26-30.66 443.2-32.07 444.14-33.47 445.63-34.68 447.12-35.89 449.23-36.77 451.34-37.65 454.11-38.15 456.88-38.65 460.42-38.65L460.42-38.65Q462.99-38.65 465.58-38.37 468.16-38.09 470.62-37.57 473.07-37.06 475.34-36.34 477.61-35.62 479.56-34.74L479.56-34.74 476.17-28.49Q474.56-29.2 472.7-29.8 470.85-30.4 468.82-30.83 466.8-31.27 464.64-31.53 462.48-31.79 460.23-31.79L460.23-31.79Q457.03-31.79 454.97-31.32 452.9-30.86 451.68-30.14 450.46-29.42 449.99-28.53 449.51-27.64 449.51-26.76L449.51-26.76Q449.51-25.05 451.05-23.96 452.59-22.88 455.74-22.88L455.74-22.88Q457.01-22.88 458.65-23.06 460.3-23.24 462.12-23.46 463.94-23.68 465.83-23.86 467.72-24.05 469.51-24.05L469.51-24.05Q472.88-24.05 475.48-23.29 478.08-22.53 479.83-21.13 481.59-19.73 482.49-17.74 483.4-15.75 483.4-13.28L483.4-13.28Q483.4-9.99 481.87-7.41 480.35-4.83 477.53-3.06 474.71-1.29 470.73-0.38 466.75 0.54 461.86 0.54L461.86 0.54Q458.64 0.54 455.57 0.13 452.49-0.27 449.67-1.01 446.85-1.76 444.3-2.8 441.75-3.83 439.57-5.08L439.57-5.08ZM491.92 0L491.92-38.16 524.41-38.16 524.41-31.37 499.66-31.37 499.66-23.75 521.58-23.75 521.58-17.38 499.66-17.38 499.66-6.76 524.92-6.76 524.92 0 491.92 0Z" opacity="1" transform="matrix(1,0,0,1,0,0)" fill="#000000" class="wordmark-text-0" data-fill-palette-color="primary" id="text-0"></path></svg></g></svg></g></svg></g></svg></g><g transform="matrix(1,0,0,1,169.14658676691727,0)"><svg viewBox="0 0 57.22682646616542 41.22682646616542" height="41.22682646616542" width="57.22682646616542"><g><svg xmlns="http://www.w3.org/2000/svg" xmlns:xlink="http://www.w3.org/1999/xlink" version="1.0" x="8" y="0" viewBox="1 1 48 48" enable-background="new 0 0 50 50" xml:space="preserve" height="41.22682646616542" width="41.22682646616542" class="icon-icon-0" data-fill-palette-color="accent" id="icon-0"><g fill="#ca3433" data-fill-palette-color="accent"><g fill="#ca3433" data-fill-palette-color="accent"><rect x="1" y="1" fill="#000000" width="23" height="5" data-fill-palette-color="accent"></rect><rect x="1" y="10" fill="#000000" width="23" height="5" data-fill-palette-color="accent"></rect><rect x="1" y="19" fill="#000000" width="23" height="5" data-fill-palette-color="accent"></rect></g><g fill="#ca3433" data-fill-palette-color="accent"><rect x="26" y="26" fill="#000000" width="23" height="5" data-fill-palette-color="accent"></rect><rect x="26" y="35" fill="#000000" width="23" height="5" data-fill-palette-color="accent"></rect><rect x="26" y="44" fill="#000000" width="23" height="5" data-fill-palette-color="accent"></rect></g><g fill="#ca3433" data-fill-palette-color="accent"><rect x="19" y="26" fill="#000000" width="5" height="23" data-fill-palette-color="accent"></rect><rect x="10" y="26" fill="#000000" width="5" height="23" data-fill-palette-color="accent"></rect><rect x="1" y="26" fill="#000000" width="5" height="23" data-fill-palette-color="accent"></rect></g><g fill="#ca3433" data-fill-palette-color="accent"><rect x="44" y="1" fill="#000000" width="5" height="23" data-fill-palette-color="accent"></rect><rect x="35" y="1" fill="#000000" width="5" height="23" data-fill-palette-color="accent"></rect><rect x="26" y="1" fill="#000000" width="5" height="23" data-fill-palette-color="accent"></rect></g></g></svg></g></svg></g><g><rect width="169.14658676691727" height="2.6902154535482707" y="37.53661101261714" x="226.3734132330827" fill="#000000" data-fill-palette-color="accent"></rect><rect width="169.14658676691727" height="2.6902154535482707" y="37.53661101261714" x="0" fill="#000000" data-fill-palette-color="accent"></rect><rect width="169.14658676691727" height="2.6902154535482707" y="32.156180105520605" x="226.3734132330827" fill="#000000" data-fill-palette-color="accent"></rect><rect width="169.14658676691727" height="2.6902154535482707" y="32.156180105520605" x="0" fill="#000000" data-fill-palette-color="accent"></rect></g></svg></g><defs></defs></svg><rect width="395.52" height="78.10055349293233" fill="none" stroke="none" visibility="hidden"></rect></g></svg></g></svg>